<svg id="Capa_1" data-name="Capa 1" xmlns="http://www.w3.org/2000/svg" viewBox="0 0 500 500"><defs><style>.cls-1{fill:#fff;opacity:0.7;isolation:isolate;}.cls-2,.cls-3{fill:#572ee5;}.cls-2{fill-opacity:0.7;}</style></defs><title>Mesa de trabajo 1</title><g id="GIFOS"><g id="_00-UI-Kit" data-name="00-UI-Kit"><g id="icon-fav"><rect id="Rectangle" class="cls-1" width="500" height="500" rx="93.75"/><path id="path-1" class="cls-2" d="M254.33,148.39a79.84,79.84,0,1,1,112.91,112.9L258.68,369.85a12.28,12.28,0,0,1-17.37,0L132.76,261.29a79.83,79.83,0,0,1,112.9-112.9l4.34,4.33ZM250,343.8,336.85,257l13-13a55.27,55.27,0,1,0-78.17-78.17l-13,13a12.28,12.28,0,0,1-17.37,0l-13-13a55.28,55.28,0,0,0-78.18,78.17Z"/></g></g></g><g id="GIFOS-2" data-name="GIFOS"><g id="_24-Mobile-Gifo-Max" data-name="24-Mobile-Gifo-Max"><g id="icon-fav-active"><path id="path-1-2" data-name="path-1" class="cls-3" d="M311.66,124a80.33,80.33,0,0,1,56.8,137.15L259.23,370.38a12.34,12.34,0,0,1-17.47,0L132.53,261.15A80.33,80.33,0,0,1,246.14,147.54l4.36,4.36,4.35-4.36A80.34,80.34,0,0,1,311.66,124Z"/></g></g></g></svg>