<svg id="Capa_1" data-name="Capa 1" xmlns="http://www.w3.org/2000/svg" viewBox="0 0 32 32"><defs><style>.cls-1{fill:#fff;}.cls-2{fill:#572ee5;}</style></defs><title>icon-fav-active1</title><g id="GIFOS"><g id="_00-UI-Kit" data-name="00-UI-Kit"><g id="icon-fav-hover"><rect id="Rectangle-Copy-7" class="cls-1" width="32" height="32" rx="6"/><path id="path-1" class="cls-2" d="M16.28,9.5a5.11,5.11,0,1,1,7.22,7.22l-6.94,7a.79.79,0,0,1-1.12,0l-6.94-7A5.11,5.11,0,0,1,15.72,9.5l.28.27ZM16,22l5.56-5.56.83-.83a3.54,3.54,0,1,0-5-5l-.83.83a.79.79,0,0,1-1.12,0l-.83-.83a3.54,3.54,0,0,0-5,5Z"/></g></g></g><g id="GIFOS-2" data-name="GIFOS"><g id="_24-Mobile-Gifo-Max" data-name="24-Mobile-Gifo-Max"><g id="icon-fav-active"><path id="path-1-2" data-name="path-1" class="cls-2" d="M19.89,8A5,5,0,0,1,23.5,9.54a5.33,5.33,0,0,1,0,7.41l-6.94,7.13a.77.77,0,0,1-1.12,0L8.5,17a5.33,5.33,0,0,1,0-7.41,5,5,0,0,1,7.22,0l.28.28.28-.28A5,5,0,0,1,19.89,8Z"/></g></g></g></svg>