<svg id="Capa_1" data-name="Capa 1" xmlns="http://www.w3.org/2000/svg" viewBox="0 0 32 32"><defs><style>.cls-1{fill:#fff;opacity:0.7;isolation:isolate;}.cls-2,.cls-3{fill:#572ee5;}.cls-2{fill-opacity:0.7;}</style></defs><title>icon-fav-js</title><g id="GIFOS"><g id="_00-UI-Kit" data-name="00-UI-Kit"><g id="icon-fav"><rect id="Rectangle" class="cls-1" width="32" height="32" rx="6"/><path id="path-1" class="cls-2" d="M16.28,9.5a5.11,5.11,0,1,1,7.22,7.22l-6.94,7a.79.79,0,0,1-1.12,0l-6.94-7A5.11,5.11,0,0,1,15.72,9.5l.28.27ZM16,22l5.56-5.56.83-.83a3.54,3.54,0,1,0-5-5l-.83.83a.79.79,0,0,1-1.12,0l-.83-.83a3.54,3.54,0,0,0-5,5Z"/></g></g></g><g id="GIFOS-2" data-name="GIFOS"><g id="_24-Mobile-Gifo-Max" data-name="24-Mobile-Gifo-Max"><g id="icon-fav-active"><path id="path-1-2" data-name="path-1" class="cls-3" d="M20.12,7.83A5.43,5.43,0,0,1,24,9.4,5.34,5.34,0,0,1,24,17l-7.36,7.29a.85.85,0,0,1-1.18,0L8.05,17a5.33,5.33,0,0,1,0-7.58,5.46,5.46,0,0,1,7.66,0l.29.29.29-.29A5.43,5.43,0,0,1,20.12,7.83Z"/></g></g></g></svg>