<svg id="Capa_1" data-name="Capa 1" xmlns="http://www.w3.org/2000/svg" viewBox="0 0 58 58"><defs><style>.cls-1{fill:#fff;opacity:0.7;isolation:isolate;}.cls-2,.cls-3{fill:#572ee5;}.cls-2{fill-opacity:0.7;}</style></defs><title>icon-favorite-active</title><g id="GIFOS"><g id="_00-UI-Kit" data-name="00-UI-Kit"><g id="icon-fav"><rect id="Rectangle" class="cls-1" width="58" height="58" rx="10.87"/><path id="path-1" class="cls-2" d="M29.5,17.21a9.26,9.26,0,0,1,13.1,13.1L30,42.9a1.42,1.42,0,0,1-2,0L15.4,30.31a9.26,9.26,0,0,1,13.1-13.1l.5.51ZM29,39.88,39.07,29.81l1.51-1.51a6.41,6.41,0,1,0-9.06-9.07L30,20.74a1.44,1.44,0,0,1-2,0l-1.51-1.51a6.41,6.41,0,0,0-9.07,9.07Z"/></g></g></g><g id="GIFOS-2" data-name="GIFOS"><g id="_24-Mobile-Gifo-Max" data-name="24-Mobile-Gifo-Max"><g id="icon-fav-active"><path id="path-1-2" data-name="path-1" class="cls-3" d="M36.05,14.53A9.25,9.25,0,0,1,42.6,30.32L30,42.9a1.42,1.42,0,0,1-2,0L15.4,30.32A9.26,9.26,0,1,1,28.5,17.24l.5.5.5-.5A9.25,9.25,0,0,1,36.05,14.53Z"/></g></g></g></svg>