<?xml version="1.0" standalone="no"?>
<!DOCTYPE svg PUBLIC "-//W3C//DTD SVG 20010904//EN"
 "http://www.w3.org/TR/2001/REC-SVG-20010904/DTD/svg10.dtd">
<svg version="1.0" xmlns="http://www.w3.org/2000/svg"
 width="210.000000pt" height="201.000000pt" viewBox="0 0 210.000000 201.000000"
 preserveAspectRatio="xMidYMid meet">

<g transform="translate(0.000000,201.000000) scale(0.100000,-0.100000)"
fill="#000000" stroke="none">
<path d="M560 1032 c-19 -10 -48 -38 -64 -60 -27 -38 -29 -48 -29 -131 0 -81
2 -94 26 -130 51 -76 161 -104 252 -62 60 27 66 39 63 123 l-3 73 -80 0 c-79
0 -80 0 -80 -25 0 -20 6 -26 30 -30 26 -4 30 -10 33 -41 3 -31 -1 -37 -20 -43
-45 -12 -70 -6 -99 23 -27 27 -29 35 -29 106 0 99 24 144 77 145 35 0 53 -11
69 -42 13 -25 20 -29 52 -26 34 3 37 5 34 32 -7 61 -53 94 -142 102 -42 4 -63
1 -90 -14z"/>
<path d="M1463 1031 c-27 -13 -52 -35 -70 -63 -25 -38 -27 -52 -27 -128 0
-110 28 -165 103 -196 79 -33 167 -7 215 65 26 39 29 52 29 125 1 68 -3 89
-23 126 -44 80 -140 110 -227 71z m108 -61 c32 -18 49 -64 49 -137 0 -96 -36
-142 -101 -128 -42 9 -63 54 -63 135 0 109 49 165 115 130z"/>
<path d="M1832 1030 c-109 -49 -78 -171 54 -216 96 -32 124 -82 62 -108 -40
-17 -81 -5 -96 29 -10 21 -18 25 -57 25 -43 0 -46 -1 -40 -22 21 -68 82 -108
168 -108 95 0 147 41 147 116 0 49 -35 92 -92 114 -85 32 -118 53 -118 76 0
47 76 60 108 19 15 -19 29 -25 61 -25 47 0 52 13 24 61 -34 56 -141 76 -221
39z"/>
<path d="M872 838 l3 -203 43 -3 42 -3 0 205 0 206 -45 0 -45 0 2 -202z"/>
<path d="M1042 838 l3 -203 45 0 45 0 3 83 3 82 79 0 80 0 0 35 0 35 -81 0
-80 0 3 53 3 52 88 3 87 3 0 29 0 30 -140 0 -140 0 2 -202z"/>
</g>
</svg>
